<?xml version="1.0" encoding="UTF-8"?>
<svg width="48px" height="39px" viewBox="0 0 48 39" version="1.1" xmlns="http://www.w3.org/2000/svg" xmlns:xlink="http://www.w3.org/1999/xlink">
    <!-- Generator: sketchtool 53 (72520) - https://sketchapp.com -->
    <title>8B61541E-8012-457D-860E-85B1403FE932</title>
    <desc>Created with sketchtool.</desc>
    <defs>
        <path d="M23,22 L18,27 L13,22 L4,22 C1.790861,22 2.705415e-16,20.209139 0,18 L0,4 C-2.705415e-16,1.790861 1.790861,4.05812251e-16 4,0 L32,0 C34.209139,-4.05812251e-16 36,1.790861 36,4 L36,18 C36,20.209139 34.209139,22 32,22 L23,22 Z" id="path-1"></path>
        <filter x="-23.6%" y="-35.2%" width="147.2%" height="166.0%" filterUnits="objectBoundingBox" id="filter-2">
            <feMorphology radius="2" operator="dilate" in="SourceAlpha" result="shadowSpreadOuter1"></feMorphology>
            <feOffset dx="0" dy="-1" in="shadowSpreadOuter1" result="shadowOffsetOuter1"></feOffset>
            <feGaussianBlur stdDeviation="2" in="shadowOffsetOuter1" result="shadowBlurOuter1"></feGaussianBlur>
            <feComposite in="shadowBlurOuter1" in2="SourceAlpha" operator="out" result="shadowBlurOuter1"></feComposite>
            <feColorMatrix values="0 0 0 0 0.223529412   0 0 0 0 0.239215686   0 0 0 0 0.262745098  0 0 0 0.2 0" type="matrix" in="shadowBlurOuter1"></feColorMatrix>
        </filter>
    </defs>
    <g id="Symbols" stroke="none" stroke-width="1" fill="none" fill-rule="evenodd">
        <g id="oth/map/pin" transform="translate(6.000000, 7.000000)">
            <g id="Rectangle-2">
                <use fill="black" fill-opacity="1" filter="url(#filter-2)" xlink:href="#path-1"></use>
                <path stroke="#FFFFFF" stroke-width="2" d="M23.4142136,23 L18,28.4142136 L12.5857864,23 L4,23 C1.23857625,23 -1,20.7614237 -1,18 L-1,4 C-1,1.23857625 1.23857625,-1 4,-1 L32,-1 C34.7614237,-1 37,1.23857625 37,4 L37,18 C37,20.7614237 34.7614237,23 32,23 L23.4142136,23 Z" fill="#393D43" fill-rule="evenodd"></path>
            </g>
        </g>
    </g>
</svg>